<svg width="210" height="203" viewBox="0 0 210 203" fill="none" xmlns="http://www.w3.org/2000/svg">
<rect width="210" height="203" rx="20" fill="#F1F1F1"/>
<g clip-path="url(#clip0_228_53993)">
<path d="M102.7 44.9999H105V83.1999H102.7V79.3999C102.7 78.9999 102.3 78.5999 101.9 78.5999H99.6C98.3 78.5999 97.3 77.5999 97.3 76.2999V51.8999C97.3 50.6999 98.3 49.5999 99.6 49.5999H101.9C102.3 49.5999 102.7 49.1999 102.7 48.7999V44.9999ZM102 43.3999C101.6 43.3999 101.2 43.7999 101.2 44.1999V47.9999H99.7C97.6 47.9999 95.8 49.6999 95.8 51.7999V76.2999C95.8 78.3999 97.5 80.0999 99.7 80.0999H101.2V83.8999C101.2 84.2999 101.6 84.6999 102 84.6999H105.9C106.3 84.6999 106.7 84.2999 106.7 83.8999V44.1999C106.7 43.7999 106.3 43.3999 105.9 43.3999C105.8 43.3999 102 43.3999 102 43.3999Z" fill="#4E4B66" stroke="#4E4B66" stroke-width="0.6158" stroke-miterlimit="10"/>
<path d="M102.7 44.9999H105V83.1999H102.7V79.3999C102.7 78.9999 102.3 78.5999 101.9 78.5999H99.6C98.3 78.5999 97.3 77.5999 97.3 76.2999V51.8999C97.3 50.6999 98.3 49.5999 99.6 49.5999H101.9C102.3 49.5999 102.7 49.1999 102.7 48.7999V44.9999ZM102 43.3999C101.6 43.3999 101.2 43.7999 101.2 44.1999V47.9999H99.7C97.6 47.9999 95.8 49.6999 95.8 51.7999V76.2999C95.8 78.3999 97.5 80.0999 99.7 80.0999H101.2V83.8999C101.2 84.2999 101.6 84.6999 102 84.6999H105.9C106.3 84.6999 106.7 84.2999 106.7 83.8999V44.1999C106.7 43.7999 106.3 43.3999 105.9 43.3999C105.8 43.3999 102 43.3999 102 43.3999Z" fill="#4E4B66" stroke="#4E4B66" stroke-width="0.6158" stroke-miterlimit="10"/>
<path d="M102 51H96.6V52.6H102V51Z" fill="#4E4B66" stroke="#4E4B66" stroke-width="0.6158" stroke-miterlimit="10"/>
<path d="M102 51H96.6V52.6H102V51Z" fill="#4E4B66" stroke="#4E4B66" stroke-width="0.6158" stroke-miterlimit="10"/>
<path d="M102 54.2H96.6V55.7999H102V54.2Z" fill="#4E4B66" stroke="#4E4B66" stroke-width="0.6158" stroke-miterlimit="10"/>
<path d="M102 54.2H96.6V55.7999H102V54.2Z" fill="#4E4B66" stroke="#4E4B66" stroke-width="0.6158" stroke-miterlimit="10"/>
<path d="M102 57.2H96.6V58.7999H102V57.2Z" fill="#4E4B66" stroke="#4E4B66" stroke-width="0.6158" stroke-miterlimit="10"/>
<path d="M102 57.2H96.6V58.7999H102V57.2Z" fill="#4E4B66" stroke="#4E4B66" stroke-width="0.6158" stroke-miterlimit="10"/>
<path d="M102 60.2H96.6V61.7999H102V60.2Z" fill="#4E4B66" stroke="#4E4B66" stroke-width="0.6158" stroke-miterlimit="10"/>
<path d="M102 60.2H96.6V61.7999H102V60.2Z" fill="#4E4B66" stroke="#4E4B66" stroke-width="0.6158" stroke-miterlimit="10"/>
<path d="M102 63.2H96.6V64.7999H102V63.2Z" fill="#4E4B66" stroke="#4E4B66" stroke-width="0.6158" stroke-miterlimit="10"/>
<path d="M102 63.2H96.6V64.7999H102V63.2Z" fill="#4E4B66" stroke="#4E4B66" stroke-width="0.6158" stroke-miterlimit="10"/>
<path d="M102 66.2998H96.6V67.8998H102V66.2998Z" fill="#4E4B66" stroke="#4E4B66" stroke-width="0.6158" stroke-miterlimit="10"/>
<path d="M102 66.2998H96.6V67.8998H102V66.2998Z" fill="#4E4B66" stroke="#4E4B66" stroke-width="0.6158" stroke-miterlimit="10"/>
<path d="M102 69.2998H96.6V70.8998H102V69.2998Z" fill="#4E4B66" stroke="#4E4B66" stroke-width="0.6158" stroke-miterlimit="10"/>
<path d="M102 69.2998H96.6V70.8998H102V69.2998Z" fill="#4E4B66" stroke="#4E4B66" stroke-width="0.6158" stroke-miterlimit="10"/>
<path d="M102 72.3999H96.6V73.9999H102V72.3999Z" fill="#4E4B66" stroke="#4E4B66" stroke-width="0.6158" stroke-miterlimit="10"/>
<path d="M102 72.3999H96.6V73.9999H102V72.3999Z" fill="#4E4B66" stroke="#4E4B66" stroke-width="0.6158" stroke-miterlimit="10"/>
<path d="M102 75.5H96.6V77.1H102V75.5Z" fill="#4E4B66" stroke="#4E4B66" stroke-width="0.6158" stroke-miterlimit="10"/>
<path d="M102 75.5H96.6V77.1H102V75.5Z" fill="#4E4B66" stroke="#4E4B66" stroke-width="0.6158" stroke-miterlimit="10"/>
<path d="M120.2 44.9999H118V83.1999H120.3V79.3999C120.3 78.9999 120.7 78.5999 121.1 78.5999H123.4C124.7 78.5999 125.7 77.5999 125.7 76.2999V51.8999C125.7 50.6999 124.7 49.5999 123.4 49.5999H121C120.6 49.5999 120.2 49.1999 120.2 48.7999V44.9999ZM121 43.3999C121.4 43.3999 121.8 43.7999 121.8 44.1999V47.9999H123.3C125.4 47.9999 127.2 49.6999 127.2 51.7999V76.2999C127.2 78.3999 125.5 80.0999 123.3 80.0999H121.8V83.8999C121.8 84.2999 121.4 84.6999 121 84.6999H117.1C116.7 84.6999 116.3 84.2999 116.3 83.8999V44.1999C116.3 43.7999 116.7 43.3999 117.1 43.3999C117.1 43.3999 121 43.3999 121 43.3999Z" fill="#4E4B66" stroke="#4E4B66" stroke-width="0.6158" stroke-miterlimit="10"/>
<path d="M120.2 44.9999H118V83.1999H120.3V79.3999C120.3 78.9999 120.7 78.5999 121.1 78.5999H123.4C124.7 78.5999 125.7 77.5999 125.7 76.2999V51.8999C125.7 50.6999 124.7 49.5999 123.4 49.5999H121C120.6 49.5999 120.2 49.1999 120.2 48.7999V44.9999ZM121 43.3999C121.4 43.3999 121.8 43.7999 121.8 44.1999V47.9999H123.3C125.4 47.9999 127.2 49.6999 127.2 51.7999V76.2999C127.2 78.3999 125.5 80.0999 123.3 80.0999H121.8V83.8999C121.8 84.2999 121.4 84.6999 121 84.6999H117.1C116.7 84.6999 116.3 84.2999 116.3 83.8999V44.1999C116.3 43.7999 116.7 43.3999 117.1 43.3999C117.1 43.3999 121 43.3999 121 43.3999Z" fill="#4E4B66" stroke="#4E4B66" stroke-width="0.6158" stroke-miterlimit="10"/>
<path d="M126.4 51H121V52.6H126.4V51Z" fill="#4E4B66" stroke="#4E4B66" stroke-width="0.6158" stroke-miterlimit="10"/>
<path d="M126.4 51H121V52.6H126.4V51Z" fill="#4E4B66" stroke="#4E4B66" stroke-width="0.6158" stroke-miterlimit="10"/>
<path d="M126.4 54.2H121V55.7999H126.4V54.2Z" fill="#4E4B66" stroke="#4E4B66" stroke-width="0.6158" stroke-miterlimit="10"/>
<path d="M126.4 54.2H121V55.7999H126.4V54.2Z" fill="#4E4B66" stroke="#4E4B66" stroke-width="0.6158" stroke-miterlimit="10"/>
<path d="M126.4 57.2H121V58.7999H126.4V57.2Z" fill="#4E4B66" stroke="#4E4B66" stroke-width="0.6158" stroke-miterlimit="10"/>
<path d="M126.4 57.2H121V58.7999H126.4V57.2Z" fill="#4E4B66" stroke="#4E4B66" stroke-width="0.6158" stroke-miterlimit="10"/>
<path d="M126.4 60.2H121V61.7999H126.4V60.2Z" fill="#4E4B66" stroke="#4E4B66" stroke-width="0.6158" stroke-miterlimit="10"/>
<path d="M126.4 60.2H121V61.7999H126.4V60.2Z" fill="#4E4B66" stroke="#4E4B66" stroke-width="0.6158" stroke-miterlimit="10"/>
<path d="M126.4 63.2H121V64.7999H126.4V63.2Z" fill="#4E4B66" stroke="#4E4B66" stroke-width="0.6158" stroke-miterlimit="10"/>
<path d="M126.4 63.2H121V64.7999H126.4V63.2Z" fill="#4E4B66" stroke="#4E4B66" stroke-width="0.6158" stroke-miterlimit="10"/>
<path d="M126.4 66.2998H121V67.8998H126.4V66.2998Z" fill="#4E4B66" stroke="#4E4B66" stroke-width="0.6158" stroke-miterlimit="10"/>
<path d="M126.4 66.2998H121V67.8998H126.4V66.2998Z" fill="#4E4B66" stroke="#4E4B66" stroke-width="0.6158" stroke-miterlimit="10"/>
<path d="M126.4 69.2998H121V70.8998H126.4V69.2998Z" fill="#4E4B66" stroke="#4E4B66" stroke-width="0.6158" stroke-miterlimit="10"/>
<path d="M126.4 69.2998H121V70.8998H126.4V69.2998Z" fill="#4E4B66" stroke="#4E4B66" stroke-width="0.6158" stroke-miterlimit="10"/>
<path d="M126.4 72.3999H121V73.9999H126.4V72.3999Z" fill="#4E4B66" stroke="#4E4B66" stroke-width="0.6158" stroke-miterlimit="10"/>
<path d="M126.4 72.3999H121V73.9999H126.4V72.3999Z" fill="#4E4B66" stroke="#4E4B66" stroke-width="0.6158" stroke-miterlimit="10"/>
<path d="M126.4 75.5H121V77.1H126.4V75.5Z" fill="#4E4B66" stroke="#4E4B66" stroke-width="0.6158" stroke-miterlimit="10"/>
<path d="M126.4 75.5H121V77.1H126.4V75.5Z" fill="#4E4B66" stroke="#4E4B66" stroke-width="0.6158" stroke-miterlimit="10"/>
<path d="M92 54.0999C91.5 54.0999 91.2 54.4999 91.2 54.8999V73.2999C91.2 73.6999 91.6 74.0999 92 74.0999C92.5 74.0999 92.9 73.7999 92.9 73.2999V54.9999C92.9 54.3999 92.5 54.0999 92 54.0999Z" fill="#4E4B66" stroke="#4E4B66" stroke-width="0.6158" stroke-miterlimit="10"/>
<path d="M92 54.0999C91.5 54.0999 91.2 54.4999 91.2 54.8999V73.2999C91.2 73.6999 91.6 74.0999 92 74.0999C92.5 74.0999 92.9 73.7999 92.9 73.2999V54.9999C92.9 54.3999 92.5 54.0999 92 54.0999Z" fill="#4E4B66" stroke="#4E4B66" stroke-width="0.6158" stroke-miterlimit="10"/>
<path d="M82.9 54.0999C82.4 54.0999 82.1 54.4999 82.1 54.8999V73.2999C82.1 73.6999 82.5 74.0999 82.9 74.0999C83.4 74.0999 83.8 73.7999 83.8 73.2999V54.9999C83.7 54.3999 83.4 54.0999 82.9 54.0999Z" fill="#4E4B66" stroke="#4E4B66" stroke-width="0.6158" stroke-miterlimit="10"/>
<path d="M82.9 54.0999C82.4 54.0999 82.1 54.4999 82.1 54.8999V73.2999C82.1 73.6999 82.5 74.0999 82.9 74.0999C83.4 74.0999 83.8 73.7999 83.8 73.2999V54.9999C83.7 54.3999 83.4 54.0999 82.9 54.0999Z" fill="#4E4B66" stroke="#4E4B66" stroke-width="0.6158" stroke-miterlimit="10"/>
<path d="M92 55.7H82.8V57.2999H92V55.7Z" fill="#4E4B66" stroke="#4E4B66" stroke-width="0.6158" stroke-miterlimit="10"/>
<path d="M92 55.7H82.8V57.2999H92V55.7Z" fill="#4E4B66" stroke="#4E4B66" stroke-width="0.6158" stroke-miterlimit="10"/>
<path d="M89.8 56.3999H88.2V71.6999H89.8V56.3999Z" fill="#4E4B66" stroke="#4E4B66" stroke-width="0.6158" stroke-miterlimit="10"/>
<path d="M89.8 56.3999H88.2V71.6999H89.8V56.3999Z" fill="#4E4B66" stroke="#4E4B66" stroke-width="0.6158" stroke-miterlimit="10"/>
<path d="M86.8 56.3999H85.2V71.6999H86.8V56.3999Z" fill="#4E4B66" stroke="#4E4B66" stroke-width="0.6158" stroke-miterlimit="10"/>
<path d="M86.8 56.3999H85.2V71.6999H86.8V56.3999Z" fill="#4E4B66" stroke="#4E4B66" stroke-width="0.6158" stroke-miterlimit="10"/>
<path d="M92 70.8999H82.8V72.4999H92V70.8999Z" fill="#4E4B66" stroke="#4E4B66" stroke-width="0.6158" stroke-miterlimit="10"/>
<path d="M92 70.8999H82.8V72.4999H92V70.8999Z" fill="#4E4B66" stroke="#4E4B66" stroke-width="0.6158" stroke-miterlimit="10"/>
<path d="M98.2 60.2H92V61.7999H98.2V60.2Z" fill="#4E4B66" stroke="#4E4B66" stroke-width="0.6158" stroke-miterlimit="10"/>
<path d="M98.2 60.2H92V61.7999H98.2V60.2Z" fill="#4E4B66" stroke="#4E4B66" stroke-width="0.6158" stroke-miterlimit="10"/>
<path d="M98.2 66.2998H92V67.8998H98.2V66.2998Z" fill="#4E4B66" stroke="#4E4B66" stroke-width="0.6158" stroke-miterlimit="10"/>
<path d="M98.2 66.2998H92V67.8998H98.2V66.2998Z" fill="#4E4B66" stroke="#4E4B66" stroke-width="0.6158" stroke-miterlimit="10"/>
<path d="M117.3 46.5H105.7V48.1H117.3V46.5Z" fill="#4E4B66" stroke="#4E4B66" stroke-width="0.6158" stroke-miterlimit="10"/>
<path d="M117.3 46.5H105.7V48.1H117.3V46.5Z" fill="#4E4B66" stroke="#4E4B66" stroke-width="0.6158" stroke-miterlimit="10"/>
<path d="M117.3 80H105.7V81.6H117.3V80Z" fill="#4E4B66" stroke="#4E4B66" stroke-width="0.6158" stroke-miterlimit="10"/>
<path d="M117.3 80H105.7V81.6H117.3V80Z" fill="#4E4B66" stroke="#4E4B66" stroke-width="0.6158" stroke-miterlimit="10"/>
<path d="M109.5 51.1H113.4V52.6H109.5V51.1ZM109.5 49.5C108.6 49.5 108 50.2 108 51V52.6C108 53.5 108.7 54.1 109.5 54.1H113.4C114.3 54.1 114.9 53.4 114.9 52.6V51.1C114.9 50.2 114.2 49.6 113.4 49.6L109.5 49.5Z" fill="#4E4B66" stroke="#4E4B66" stroke-width="0.6158" stroke-miterlimit="10"/>
<path d="M109.5 51.1H113.4V52.6H109.5V51.1ZM109.5 49.5C108.6 49.5 108 50.2 108 51V52.6C108 53.5 108.7 54.1 109.5 54.1H113.4C114.3 54.1 114.9 53.4 114.9 52.6V51.1C114.9 50.2 114.2 49.6 113.4 49.6L109.5 49.5Z" fill="#4E4B66" stroke="#4E4B66" stroke-width="0.6158" stroke-miterlimit="10"/>
<path d="M109.5 57.2H113.4V58.7H109.5V57.2ZM109.5 55.7C108.6 55.7 108 56.4 108 57.2V58.7C108 59.6 108.7 60.2 109.5 60.2H113.4C114.3 60.2 114.9 59.5 114.9 58.7V57.2C114.9 56.3 114.2 55.7 113.4 55.7C113.4 55.7 109.5 55.7 109.5 55.7Z" fill="#4E4B66" stroke="#4E4B66" stroke-width="0.6158" stroke-miterlimit="10"/>
<path d="M109.5 57.2H113.4V58.7H109.5V57.2ZM109.5 55.7C108.6 55.7 108 56.4 108 57.2V58.7C108 59.6 108.7 60.2 109.5 60.2H113.4C114.3 60.2 114.9 59.5 114.9 58.7V57.2C114.9 56.3 114.2 55.7 113.4 55.7C113.4 55.7 109.5 55.7 109.5 55.7Z" fill="#4E4B66" stroke="#4E4B66" stroke-width="0.6158" stroke-miterlimit="10"/>
<path d="M109.5 63.2H113.4V64.7H109.5V63.2ZM109.5 61.7C108.6 61.7 108 62.4 108 63.2V64.7C108 65.6 108.7 66.2 109.5 66.2H113.4C114.3 66.2 114.9 65.5 114.9 64.7V63.2C114.9 62.3 114.2 61.7 113.4 61.7H109.5Z" fill="#4E4B66" stroke="#4E4B66" stroke-width="0.6158" stroke-miterlimit="10"/>
<path d="M109.5 63.2H113.4V64.7H109.5V63.2ZM109.5 61.7C108.6 61.7 108 62.4 108 63.2V64.7C108 65.6 108.7 66.2 109.5 66.2H113.4C114.3 66.2 114.9 65.5 114.9 64.7V63.2C114.9 62.3 114.2 61.7 113.4 61.7H109.5Z" fill="#4E4B66" stroke="#4E4B66" stroke-width="0.6158" stroke-miterlimit="10"/>
<path d="M109.5 69.3998H113.4V70.8998H109.5V69.3998ZM109.5 67.7998C108.6 67.7998 108 68.4998 108 69.2998V70.7998C108 71.6998 108.7 72.2998 109.5 72.2998H113.4C114.3 72.2998 114.9 71.5998 114.9 70.7998V69.2998C114.9 68.3998 114.2 67.7998 113.4 67.7998H109.5Z" fill="#4E4B66" stroke="#4E4B66" stroke-width="0.6158" stroke-miterlimit="10"/>
<path d="M109.5 69.3998H113.4V70.8998H109.5V69.3998ZM109.5 67.7998C108.6 67.7998 108 68.4998 108 69.2998V70.7998C108 71.6998 108.7 72.2998 109.5 72.2998H113.4C114.3 72.2998 114.9 71.5998 114.9 70.7998V69.2998C114.9 68.3998 114.2 67.7998 113.4 67.7998H109.5Z" fill="#4E4B66" stroke="#4E4B66" stroke-width="0.6158" stroke-miterlimit="10"/>
<path d="M109.5 75.4999H113.4V76.9999H109.5V75.4999ZM109.5 73.8999C108.6 73.8999 108 74.5999 108 75.3999V76.9999C108 77.8999 108.7 78.4999 109.5 78.4999H113.4C114.3 78.4999 114.9 77.7999 114.9 76.9999V75.4999C114.9 74.5999 114.2 73.9999 113.4 73.9999H109.5V73.8999Z" fill="#4E4B66" stroke="#4E4B66" stroke-width="0.6158" stroke-miterlimit="10"/>
<path d="M109.5 75.4999H113.4V76.9999H109.5V75.4999ZM109.5 73.8999C108.6 73.8999 108 74.5999 108 75.3999V76.9999C108 77.8999 108.7 78.4999 109.5 78.4999H113.4C114.3 78.4999 114.9 77.7999 114.9 76.9999V75.4999C114.9 74.5999 114.2 73.9999 113.4 73.9999H109.5V73.8999Z" fill="#4E4B66" stroke="#4E4B66" stroke-width="0.6158" stroke-miterlimit="10"/>
<path d="M127.2 45H121V46.6H127.2V45Z" fill="#4E4B66" stroke="#4E4B66" stroke-width="0.6158" stroke-miterlimit="10"/>
<path d="M127.2 45H121V46.6H127.2V45Z" fill="#4E4B66" stroke="#4E4B66" stroke-width="0.6158" stroke-miterlimit="10"/>
<circle cx="105" cy="64" r="38.5" stroke="#F56E1E" stroke-width="3"/>
</g>
<path d="M52.8928 141.4H61.3528V144.064H56.1328V154H52.8928V141.4ZM65.7537 154.234C65.0577 154.234 64.4037 154.138 63.7917 153.946C63.1917 153.742 62.6697 153.436 62.2257 153.028C61.7817 152.62 61.4337 152.11 61.1817 151.498C60.9297 150.874 60.8037 150.148 60.8037 149.32V148.96C60.8037 148.168 60.9237 147.478 61.1637 146.89C61.4157 146.302 61.7517 145.81 62.1717 145.414C62.6037 145.018 63.1077 144.724 63.6837 144.532C64.2717 144.328 64.9017 144.226 65.5737 144.226C67.1457 144.226 68.3337 144.634 69.1377 145.45C69.9417 146.254 70.3437 147.424 70.3437 148.96V149.95H63.6477C63.6597 150.322 63.7257 150.64 63.8457 150.904C63.9657 151.156 64.1217 151.366 64.3137 151.534C64.5057 151.702 64.7217 151.828 64.9617 151.912C65.2137 151.984 65.4777 152.02 65.7537 152.02C66.2817 152.02 66.6957 151.942 66.9957 151.786C67.3077 151.618 67.5117 151.396 67.6077 151.12H70.1637C69.9717 152.164 69.4977 152.944 68.7417 153.46C67.9857 153.976 66.9897 154.234 65.7537 154.234ZM65.6637 146.422C65.4117 146.422 65.1657 146.452 64.9257 146.512C64.6977 146.572 64.4877 146.674 64.2957 146.818C64.1157 146.95 63.9657 147.124 63.8457 147.34C63.7377 147.556 63.6777 147.82 63.6657 148.132H67.6257C67.6257 147.796 67.5717 147.52 67.4637 147.304C67.3557 147.088 67.2117 146.914 67.0317 146.782C66.8637 146.65 66.6597 146.56 66.4197 146.512C66.1797 146.452 65.9277 146.422 65.6637 146.422ZM71.7809 144.46H74.5529V148.006H78.1889V144.46H80.9609V154H78.1889V150.274H74.5529V154H71.7809V144.46ZM87.3572 154.234C86.6612 154.234 86.0072 154.138 85.3952 153.946C84.7952 153.742 84.2732 153.436 83.8292 153.028C83.3852 152.62 83.0372 152.11 82.7852 151.498C82.5332 150.874 82.4072 150.148 82.4072 149.32V148.96C82.4072 148.168 82.5272 147.478 82.7672 146.89C83.0192 146.302 83.3552 145.81 83.7752 145.414C84.2072 145.018 84.7112 144.724 85.2872 144.532C85.8752 144.328 86.5052 144.226 87.1772 144.226C88.7492 144.226 89.9372 144.634 90.7412 145.45C91.5452 146.254 91.9472 147.424 91.9472 148.96V149.95H85.2512C85.2632 150.322 85.3292 150.64 85.4492 150.904C85.5692 151.156 85.7252 151.366 85.9172 151.534C86.1092 151.702 86.3252 151.828 86.5652 151.912C86.8172 151.984 87.0812 152.02 87.3572 152.02C87.8852 152.02 88.2992 151.942 88.5992 151.786C88.9112 151.618 89.1152 151.396 89.2112 151.12H91.7672C91.5752 152.164 91.1012 152.944 90.3452 153.46C89.5892 153.976 88.5932 154.234 87.3572 154.234ZM87.2672 146.422C87.0152 146.422 86.7692 146.452 86.5292 146.512C86.3012 146.572 86.0912 146.674 85.8992 146.818C85.7192 146.95 85.5692 147.124 85.4492 147.34C85.3412 147.556 85.2812 147.82 85.2692 148.132H89.2292C89.2292 147.796 89.1752 147.52 89.0672 147.304C88.9592 147.088 88.8152 146.914 88.6352 146.782C88.4672 146.65 88.2632 146.56 88.0232 146.512C87.7832 146.452 87.5312 146.422 87.2672 146.422ZM93.3844 144.46H95.9404V145.756C96.0604 145.564 96.2104 145.378 96.3904 145.198C96.5824 145.006 96.8044 144.838 97.0564 144.694C97.3084 144.55 97.5904 144.436 97.9024 144.352C98.2144 144.268 98.5504 144.226 98.9104 144.226C100.254 144.226 101.274 144.622 101.97 145.414C102.666 146.206 103.014 147.388 103.014 148.96V149.32C103.014 150.136 102.918 150.85 102.726 151.462C102.534 152.074 102.258 152.584 101.898 152.992C101.538 153.4 101.106 153.712 100.602 153.928C100.098 154.132 99.5344 154.234 98.9104 154.234C98.3704 154.234 97.8544 154.114 97.3624 153.874C96.8824 153.622 96.4804 153.262 96.1564 152.794V157.6H93.3844V144.46ZM98.2444 151.948C98.7964 151.948 99.2524 151.726 99.6124 151.282C99.9844 150.838 100.17 150.184 100.17 149.32V148.96C100.17 148.132 99.9904 147.52 99.6304 147.124C99.2824 146.716 98.8204 146.512 98.2444 146.512C97.6564 146.512 97.1584 146.698 96.7504 147.07C96.3544 147.43 96.1564 147.97 96.1564 148.69V149.59C96.1564 150.346 96.3544 150.928 96.7504 151.336C97.1584 151.744 97.6564 151.948 98.2444 151.948ZM107.429 154.234C106.913 154.234 106.451 154.156 106.043 154C105.647 153.844 105.311 153.634 105.035 153.37C104.759 153.094 104.549 152.776 104.405 152.416C104.261 152.044 104.189 151.642 104.189 151.21C104.189 150.262 104.477 149.536 105.053 149.032C105.641 148.528 106.523 148.276 107.699 148.276H110.417V147.88C110.417 147.304 110.279 146.908 110.003 146.692C109.727 146.464 109.349 146.35 108.869 146.35C108.413 146.35 108.077 146.422 107.861 146.566C107.645 146.71 107.525 146.938 107.501 147.25H104.729C104.753 146.818 104.861 146.422 105.053 146.062C105.245 145.69 105.515 145.372 105.863 145.108C106.223 144.832 106.661 144.616 107.177 144.46C107.693 144.304 108.287 144.226 108.959 144.226C109.583 144.226 110.153 144.298 110.669 144.442C111.197 144.574 111.647 144.796 112.019 145.108C112.391 145.408 112.679 145.804 112.883 146.296C113.087 146.776 113.189 147.364 113.189 148.06V151.57C113.189 152.074 113.201 152.518 113.225 152.902C113.249 153.274 113.285 153.64 113.333 154H110.705C110.681 153.796 110.657 153.616 110.633 153.46C110.621 153.304 110.615 153.112 110.615 152.884C110.327 153.268 109.925 153.592 109.409 153.856C108.905 154.108 108.245 154.234 107.429 154.234ZM108.329 152.29C108.917 152.29 109.409 152.122 109.805 151.786C110.213 151.45 110.417 150.988 110.417 150.4V150.004H108.239C107.831 150.004 107.525 150.112 107.321 150.328C107.129 150.544 107.033 150.796 107.033 151.084C107.033 151.432 107.129 151.72 107.321 151.948C107.525 152.176 107.861 152.29 108.329 152.29ZM117.118 146.728H114.184V144.46H122.824V146.728H119.89V154H117.118V146.728ZM128.4 154.234C127.728 154.234 127.098 154.138 126.51 153.946C125.922 153.742 125.406 153.436 124.962 153.028C124.518 152.62 124.17 152.11 123.918 151.498C123.666 150.874 123.54 150.148 123.54 149.32V148.96C123.54 148.18 123.666 147.496 123.918 146.908C124.17 146.32 124.518 145.828 124.962 145.432C125.406 145.036 125.922 144.736 126.51 144.532C127.098 144.328 127.728 144.226 128.4 144.226C129.072 144.226 129.702 144.328 130.29 144.532C130.878 144.736 131.394 145.036 131.838 145.432C132.282 145.828 132.63 146.32 132.882 146.908C133.134 147.496 133.26 148.18 133.26 148.96V149.32C133.26 150.136 133.134 150.856 132.882 151.48C132.63 152.092 132.282 152.602 131.838 153.01C131.394 153.418 130.878 153.724 130.29 153.928C129.702 154.132 129.072 154.234 128.4 154.234ZM128.4 151.93C129.048 151.93 129.546 151.696 129.894 151.228C130.242 150.76 130.416 150.124 130.416 149.32V148.96C130.416 148.24 130.242 147.658 129.894 147.214C129.546 146.758 129.048 146.53 128.4 146.53C127.752 146.53 127.254 146.758 126.906 147.214C126.558 147.658 126.384 148.24 126.384 148.96V149.32C126.384 150.148 126.558 150.79 126.906 151.246C127.254 151.702 127.752 151.93 128.4 151.93ZM134.693 144.46H137.249V145.756C137.369 145.564 137.519 145.378 137.699 145.198C137.891 145.006 138.113 144.838 138.365 144.694C138.617 144.55 138.899 144.436 139.211 144.352C139.523 144.268 139.859 144.226 140.219 144.226C141.563 144.226 142.583 144.622 143.279 145.414C143.975 146.206 144.323 147.388 144.323 148.96V149.32C144.323 150.136 144.227 150.85 144.035 151.462C143.843 152.074 143.567 152.584 143.207 152.992C142.847 153.4 142.415 153.712 141.911 153.928C141.407 154.132 140.843 154.234 140.219 154.234C139.679 154.234 139.163 154.114 138.671 153.874C138.191 153.622 137.789 153.262 137.465 152.794V157.6H134.693V144.46ZM139.553 151.948C140.105 151.948 140.561 151.726 140.921 151.282C141.293 150.838 141.479 150.184 141.479 149.32V148.96C141.479 148.132 141.299 147.52 140.939 147.124C140.591 146.716 140.129 146.512 139.553 146.512C138.965 146.512 138.467 146.698 138.059 147.07C137.663 147.43 137.465 147.97 137.465 148.69V149.59C137.465 150.346 137.663 150.928 138.059 151.336C138.467 151.744 138.965 151.948 139.553 151.948ZM145.767 144.46H148.539V147.556H150.087C151.335 147.556 152.277 147.82 152.913 148.348C153.549 148.876 153.867 149.686 153.867 150.778C153.867 151.258 153.795 151.696 153.651 152.092C153.519 152.488 153.297 152.83 152.985 153.118C152.685 153.394 152.295 153.61 151.815 153.766C151.347 153.922 150.771 154 150.087 154H145.767V144.46ZM149.727 151.912C150.219 151.912 150.567 151.822 150.771 151.642C150.987 151.45 151.095 151.162 151.095 150.778C151.095 150.382 150.987 150.094 150.771 149.914C150.567 149.734 150.219 149.644 149.727 149.644H148.539V151.912H149.727ZM154.695 144.46H157.467V154H154.695V144.46Z" fill="#4E4B66"/>
<defs>
<clipPath id="clip0_228_53993">
<rect width="80" height="80" fill="white" transform="translate(65 24)"/>
</clipPath>
</defs>
</svg>
